<svg id="Layer_1" data-name="Layer 1" xmlns="http://www.w3.org/2000/svg" viewBox="0 0 2166.29 2166.29"><defs><style>.cls-1{fill:#c52126;}.cls-2{fill:#fff;stroke:#fff;stroke-miterlimit:10;stroke-width:22px;}.cls-3{fill:#c52127;}</style></defs><circle class="cls-1" cx="1083.15" cy="1083.15" r="1083.15"/><path class="cls-2" d="M1668.69,2367H1161.18a230,230,0,0,1-230-230V1299.1a230,230,0,0,1,230-230h507.51a230,230,0,0,1,230,230V2137a230,230,0,0,1-230,230ZM1161.18,1129.1c-93.74,0-170,76.27-170,170V2137c0,93.74,76.26,170,170,170h507.51c93.74,0,170-76.26,170-170V1299.1c0-93.73-76.26-170-170-170Z" transform="translate(-331.79 -535.99)"/><ellipse class="cls-3" cx="1083.15" cy="510.44" rx="150.84" ry="127.18"/><path class="cls-2" d="M1414.93,1213.61c-49.71,0-96.75-16.58-132.44-46.67-37.66-31.75-58.4-74.55-58.4-120.51s20.74-88.76,58.4-120.51c35.69-30.09,82.73-46.67,132.44-46.67s96.75,16.58,132.45,46.67c37.65,31.75,58.39,74.55,58.39,120.51s-20.74,88.76-58.39,120.51C1511.68,1197,1464.65,1213.61,1414.93,1213.61Zm0-254.36c-30.86,0-59.59,9.89-80.87,27.83-19.32,16.29-30,37.37-30,59.35s10.65,43.06,30,59.35c21.28,17.94,50,27.83,80.87,27.83s59.59-9.89,80.88-27.83c19.32-16.29,30-37.37,30-59.35s-10.64-43.06-30-59.35C1474.52,969.14,1445.8,959.25,1414.93,959.25Z" transform="translate(-331.79 -535.99)"/><path class="cls-3" d="M851,1205a107.05,107.05,0,0,0,107.05,107h913.68a107,107,0,0,0,0-214.1H958.09A107.05,107.05,0,0,0,851,1205Z" transform="translate(-331.79 -535.99)"/><path class="cls-2" d="M1871.77,1342H958.09C882.52,1342,821,1280.53,821,1205v-26.28h2.53c12.29-63,67.94-110.77,134.52-110.77h913.68c75.57,0,137,61.48,137,137S1947.34,1342,1871.77,1342ZM881,1205a77.14,77.14,0,0,0,77.05,77h913.68a77,77,0,0,0,0-154.1H958.09A77.14,77.14,0,0,0,881,1205Z" transform="translate(-331.79 -535.99)"/><path class="cls-2" d="M1414.93,2157.69a35,35,0,0,1-35-35V1511.52a35,35,0,0,1,70,0v611.17A35,35,0,0,1,1414.93,2157.69Z" transform="translate(-331.79 -535.99)"/><path class="cls-2" d="M1168.06,2157.69a35,35,0,0,1-35-35V1511.52a35,35,0,0,1,70,0v611.17A35,35,0,0,1,1168.06,2157.69Z" transform="translate(-331.79 -535.99)"/><path class="cls-2" d="M1661.8,2157.69a35,35,0,0,1-35-35V1511.52a35,35,0,0,1,70,0v611.17A35,35,0,0,1,1661.8,2157.69Z" transform="translate(-331.79 -535.99)"/></svg>