<svg id="Ñëîé_1" data-name="Ñëîé 1" xmlns="http://www.w3.org/2000/svg" viewBox="0 0 3940.66 605.62"><defs><style>.cls-1{fill:#fff;}.cls-2{fill:none;stroke:#fff;stroke-miterlimit:10;stroke-width:48px;}</style></defs><path class="cls-1" d="M6333.53,1899.65q8.63,111-16.1,189.78a42.34,42.34,0,0,1-40.25,29.9,32.24,32.24,0,0,1-12.08-2.3,41.52,41.52,0,0,1-25-20.41q-8.34-15.26-3.16-32.5,12.65-40.24,13.8-100.63a134.48,134.48,0,0,1-17.83,3.45,330.47,330.47,0,0,1-35.08,1.72q-34.5,0-77.06-6.32l-14.95-2.3q-1.16,63.26,2.3,111a39.39,39.39,0,0,1-3.74,21.56,44,44,0,0,1-14.09,16.68,38.09,38.09,0,0,1-20.7,7.19q-17.83,1.73-31-9.78a40.24,40.24,0,0,1-14.38-28.75q-5.18-61-2.3-136.87-25.31-6.33-41.4-11.5a48.11,48.11,0,0,1-14.67-8.34,37.21,37.21,0,0,1-10.06-12.65,47.22,47.22,0,0,1-4.32-15.82,37.87,37.87,0,0,1,2-16.68,40.29,40.29,0,0,1,20.7-24.72,39.36,39.36,0,0,1,32.2-2.3q6.33,1.73,22.43,6.32,15.53-124.21,63.84-176,35.64-37.38,84.53-36.81,56.94,1.15,96,55.21,44.28,61,57.51,176A40.34,40.34,0,0,1,6333.53,1899.65ZM6134,1879q80.51,12.08,112.14-1.73-10.94-88-41.4-130-14.39-20.13-28.76-20.13-12.07,0-21.85,10.35-31.05,32.77-42.56,137.44Q6123.06,1877.23,6134,1879Z" transform="translate(-4866.64 -1624.77)"/><path class="cls-1" d="M6713.63,1869.17q5.18,88,.29,146.07t-21,85.69q-12.08,21.27-36.8,21.28a42.44,42.44,0,0,1-40.26-31.06,41.29,41.29,0,0,1,4-32.2q3.45-6.33,6.61-24.15t4.89-54.92q1.73-37.1-1.15-90.58-1.17-17.25-2.3-33.93-20.71,66.14-40.26,135.72a42.65,42.65,0,0,1-15.24,22.43,40.84,40.84,0,0,1-25.59,8.62h-.57a42.82,42.82,0,0,1-25.6-9.48,41,41,0,0,1-14.66-22.72Q6489.92,1925.55,6471,1864q-1.15,18.4-1.73,37.38-1.16,53.47,4.61,91.15t13.8,49.17a42.06,42.06,0,0,1,6.9,31.63,41.88,41.88,0,0,1-48.88,34.21A42.3,42.3,0,0,1,6418,2090q-37.38-54.63-32.78-200.7,1.72-57.49,9.78-102.94,10.35-56.92,31.05-77.06,19.55-20.11,46-12.65,17.25,4.61,29.33,20.7t23.58,45.43q10.35,25.32,23,65,18.4-58.66,32.2-94.32,8.64-23.57,15.24-36.8a88.51,88.51,0,0,1,15.24-22.14,46.14,46.14,0,0,1,20.13-12.37q23-6.9,41.41,8.06a51.81,51.81,0,0,1,11.5,13.51q4.59,7.77,8.91,24.15t8.92,44Q6709.6,1804.77,6713.63,1869.17Z" transform="translate(-4866.64 -1624.77)"/><path class="cls-1" d="M6840.94,1732.3q-6.9,44.29.57,360a41.89,41.89,0,0,1-12.07,29.91,41.06,41.06,0,0,1-29.33,13.22H6799a41.84,41.84,0,0,1-20.71-5.46,41.41,41.41,0,0,1-15.52-14.95,39.69,39.69,0,0,1-5.75-21q-2.31-73-2.88-178.85-1.16-88,0-136t2.59-58.08a63,63,0,0,1,4.89-17.54q6.32-16.1,22.71-22.72a42.53,42.53,0,0,1,54.35,21.28A41.22,41.22,0,0,1,6840.94,1732.3Z" transform="translate(-4866.64 -1624.77)"/><path class="cls-1" d="M7112.37,2003.17a41.73,41.73,0,0,1,19.26,26.16,39.86,39.86,0,0,1-4.89,31.92,40.61,40.61,0,0,1-25.88,19l-162.17,39.68a32.55,32.55,0,0,1-10.35,1.72,38.85,38.85,0,0,1-24.73-8.62q-16.11-11.52-17.25-31.63-4.6-85.11-5.75-172.53-1.72-188.61,21.85-235.78a42.37,42.37,0,0,1,56.65-18.69,40.16,40.16,0,0,1,21.27,24.15,42.63,42.63,0,0,1-2,32.5q-2.29,4-4.89,15t-5.75,59.81q-3.16,48.89-2.58,122.49.56,54.65,3.45,117.31l111.56-27.6A41.36,41.36,0,0,1,7112.37,2003.17Z" transform="translate(-4866.64 -1624.77)"/><path class="cls-1" d="M7258.4,1732.3q-6.9,44.29.58,360a41.9,41.9,0,0,1-12.08,29.91,41,41,0,0,1-29.33,13.22h-1.15a42.71,42.71,0,0,1-36.23-20.41,39.78,39.78,0,0,1-5.75-21q-2.29-73-2.87-178.85-1.17-88,0-136t2.59-58.08a63,63,0,0,1,4.88-17.54q6.33-16.1,22.72-22.72a42.48,42.48,0,0,1,56.64,51.47Z" transform="translate(-4866.64 -1624.77)"/><path class="cls-1" d="M7629.9,1784.06q4,71.31-43.14,116.74a159.44,159.44,0,0,1-35.65,26.46q23.58,27.6,25.3,65,1.73,42.57-24.44,74.76t-74.47,46.58a231.64,231.64,0,0,1-64.41,9.78,205.43,205.43,0,0,1-35.08-1.73,43.42,43.42,0,0,1-27.6,12.08h-1.73a40.76,40.76,0,0,1-30.19-11.5,42.75,42.75,0,0,1-14.09-29.33q-1.72-35.09-3.74-110.42t-.57-174.25q1.42-98.89,9.49-128.81a43.57,43.57,0,0,1,20.7-26.17,41.82,41.82,0,0,1,32.78-4.31,40.17,40.17,0,0,1,21.85,14.37q120.77-30.46,186.33,11.51Q7625.87,1709.3,7629.9,1784.06ZM7527,1838.69q18.39-18.39,16.67-50-1.73-29.9-19-40.83-14.39-9.19-40-10.06a242.85,242.85,0,0,0-49.17,3.16,353.05,353.05,0,0,0-47.16,11.5q-2.29,44.86-2.3,118.47,11.5,0,24.16,1.15Q7494.17,1869.76,7527,1838.69Zm-51.18,181.73q14.36-9.78,13.8-24.73-.59-15.53-24.73-24.73t-55.78-12.07h-21.86q.57,40.83,1.73,76.48,19.55,2.88,44.85-.57T7475.78,2020.42Z" transform="translate(-4866.64 -1624.77)"/><path class="cls-1" d="M7896.73,2023.29a41.43,41.43,0,0,1,14.37,57.51q-12.08,20.7-36.23,20.7a44.36,44.36,0,0,1-21.85-5.75l-82.24-49.45a97.06,97.06,0,0,0,2.3,12.07q6.33,15,.58,31.06A40.69,40.69,0,0,1,7753,2113a47.08,47.08,0,0,1-19,4,42.69,42.69,0,0,1-21.86-6,41.61,41.61,0,0,1-16.1-17q-9.19-19-13.22-84.54-3.45-54-4-123.64,0-74.19,2.88-122.49a42.09,42.09,0,0,1-25-9.49,38.36,38.36,0,0,1-14.09-23.29,40.14,40.14,0,0,1,5.18-31.63,40.73,40.73,0,0,1,26.45-19q11.49-2.29,26.45-4.6a39.79,39.79,0,0,1,27.61-16.1,40.89,40.89,0,0,1,31.05,8,18.47,18.47,0,0,0,2.88,2.3q95.44-2.86,146.07,36.23,46,35.09,47.73,97.19,2.29,54.06-26.74,98t-86.55,74.47a113.84,113.84,0,0,1-13.8,6.9Zm-132.85-105.24a274.88,274.88,0,0,0,36.52-15.81,252.7,252.7,0,0,0,34.79-22.43,95.28,95.28,0,0,0,27.61-32.49,82.11,82.11,0,0,0,8.91-41.41q-.87-22.42-15.24-33.35-25.87-20.13-89.14-18.4-4.6,52.33-4,135.72Q7763.31,1903.68,7763.88,1918.05Z" transform="translate(-4866.64 -1624.77)"/><path class="cls-1" d="M8758.06,1877.22q53.48,35.08,48.88,98.34-4,52.92-42,85.4t-96,32.49q-6.9,0-14.38-.57-52.34-3.45-90.29-31.06-23.58-17.25-35.65-40.83a93,93,0,0,1-10.35-49.45,42.48,42.48,0,0,1,15-28.76,39.78,39.78,0,0,1,30.48-10.06,41.39,41.39,0,0,1,28.75,14.66,40.68,40.68,0,0,1,10.35,30.48q-.57,8.63,16.68,19t41.41,12.08a121.62,121.62,0,0,0,18.69-.29,84,84,0,0,0,19-4.31,34.24,34.24,0,0,0,16.67-12.37q6.62-8.91,7.19-22.71,1.14-13.8-12.08-22.43t-59.23-21.28q-52.33-14.94-74.18-28.18-50-30.46-47.16-85.11,2.86-52.9,33.07-94.31t73.89-52.33q24.72-5.74,47.16-.58t42.27,21q19.85,15.83,34.22,40.54,8.63,15.54,4,32.21a41.72,41.72,0,0,1-19.55,25.59,39.6,39.6,0,0,1-31.92,4.31,40.65,40.65,0,0,1-25.59-19.55q-15-25.3-30.48-21.28-15,3.45-28.18,23.29t-14.37,45.15q-.59,4.61,6.32,8.62,12.07,7.48,53.48,19Q8733.33,1860.55,8758.06,1877.22Z" transform="translate(-4866.64 -1624.77)"/><path class="cls-1" d="M8231.89,1660.18c-117.94,0-213.54,95.61-213.54,213.54s95.6,213.54,213.54,213.54,213.54-95.6,213.54-213.54S8349.82,1660.18,8231.89,1660.18Zm-75.79,112.44a40,40,0,1,1-40,40A40,40,0,0,1,8156.1,1772.62Zm198.2,137.26c-.53,15.34-10.2,42.29-30.18,65.27-24.38,28.52-58,44.64-92.23,44.29h-1.15c-33.86,0-67-16.09-91.09-44.29-20-23-29.65-49.93-30.17-65.27a17.4,17.4,0,0,1,34.77-1.19c.18,5.22,5.66,25.25,21.7,43.67l.11.13c8.38,9.81,31.55,32.61,65.6,32.15h.45c34.07.46,57.22-22.34,65.6-32.15l.11-.13c16.05-18.42,21.52-38.46,21.7-43.67a17.4,17.4,0,0,1,34.78,1.19Zm-6.62-57.08a17.39,17.39,0,0,1-17.4-17.39,22.61,22.61,0,1,0-45.22,0,17.4,17.4,0,0,1-34.79,0,57.41,57.41,0,1,1,114.81,0A17.39,17.39,0,0,1,8347.68,1852.8Z" transform="translate(-4866.64 -1624.77)"/><path class="cls-2" d="M8459.63,1822.43q-19.89-84.54-103.68-131.12-98.51-54.63-252.3-39.11-25.92,2.88-41.47,17t-12.1,31.34q4.32,17.84,26.79,28.18-37.17,40.83-54.44,98.34-14.7,48.88-10.37,96t25.92,84q25.05,43.71,73,67.57t108.44,23.86q17.28,0,34.56-1.72a245.12,245.12,0,0,0,100.66-33.36,214,214,0,0,0,40.61-31.63,250.21,250.21,0,0,0,33.27-40.83Q8480.37,1910.42,8459.63,1822.43Z" transform="translate(-4866.64 -1624.77)"/><path class="cls-1" d="M8078,1655.07c-5.84,2.35-11.46,5.58-15.69,10.25-8.26,9.09-10.19,22.45-8.62,34.64,1.21,9.4,4.58,19,11.83,25.13,9.48,8,23.06,8.18,35.45,8,23.28-.37,49.28-1.89,65.21-18.88,13.51-14.42,27.43-68.93,2-75.73-9.64-2.57-27.38,8.61-37.25,10.14C8112.94,1651.38,8095.56,1648,8078,1655.07Z" transform="translate(-4866.64 -1624.77)"/><path class="cls-1" d="M8031.47,1988.9c5.37,15.75,11.26,31.8,22.16,44.38,8.35,9.64,19.2,16.72,30.14,23.27,29.38,17.58,63,32.65,96.83,27a10.65,10.65,0,0,0,5.08-1.84c3.14-2.55,2.66-7.44,1.46-11.3-4.64-15-15.58-27.17-27.6-37.23s-25.36-18.44-37.08-28.83-21.52-22.48-33-32.94-25.24-19.41-40.68-21.28c-8.15-1-22.69-3.94-30-2C8020.63,1961.77,8027,1975.91,8031.47,1988.9Z" transform="translate(-4866.64 -1624.77)"/><path class="cls-1" d="M8410.21,1882.76c.27,18.76.57,37.76,5.48,55.87,1.11,4.07,3,8.65,7,9.87,2.16.65,4.49.17,6.68-.38a124.75,124.75,0,0,0,24.78-9c3.41-1.66,6.93-3.66,8.75-7,1.46-2.67,1.63-5.82,1.75-8.85q1.3-31.27,1-62.59c-.14-15.48-.59-31.14-4.66-46.08-2-7.38-5-14.71-10.24-20.29-11.83-12.63-40.92-15.34-41.75,5.86C8408,1827.54,8409.83,1855.36,8410.21,1882.76Z" transform="translate(-4866.64 -1624.77)"/><path class="cls-1" d="M4867.15,1685.94a12.08,12.08,0,0,1,.45-1.13,10.74,10.74,0,0,1,.66-1.2,10.29,10.29,0,0,1,1.58-1.9,11.59,11.59,0,0,1,3.39-2.23,15.69,15.69,0,0,1,3-1,24.79,24.79,0,0,1,5-.54,48.94,48.94,0,0,1,8.54.75,104.12,104.12,0,0,1,15.35,3.94l1.84.62,1.83.65.36.13.65.24.95.38,1.78.72,6.9,2.89,27.38,11.59,6.82,2.87,3.39,1.4,1.66.68,1.64.62c4.76,1.78,9.36,3.71,13.94,5.56s8.91,3.56,13.31,5.09l-.83-.5c-2-1.18-4.18-2.41-6.31-3.61l-6.47-3.59-13-7.17L4934.88,1687l-3.28-1.79c-1.12-.61-2.24-1.24-3.36-1.88-2.22-1.28-4.43-2.62-6.6-4a118.57,118.57,0,0,1-12.69-9.25,64.15,64.15,0,0,1-6-5.7,34.87,34.87,0,0,1-2.81-3.49,20.67,20.67,0,0,1-2.53-4.61,13.29,13.29,0,0,1-.83-3.34,10.15,10.15,0,0,1,.89-5.59,9.11,9.11,0,0,1,.66-1.18,9.82,9.82,0,0,1,1.55-1.85,11.45,11.45,0,0,1,3.33-2.17,17.85,17.85,0,0,1,5.52-1.34,32.23,32.23,0,0,1,4.61-.08,57.62,57.62,0,0,1,8.26,1.07c2.63.52,5.2,1.15,7.72,1.86a149.43,149.43,0,0,1,14.67,5.06c2.37,1,4.73,2,7.07,3l.89.4.45.2.16.07,1.78.71,3.51,1.5c4.61,2,9.13,4.05,13.66,6.09l27,12.26q6.77,3,13.53,6c2.26,1,4.51,1.93,6.75,2.85s4.5,1.83,6.63,2.58l.78.27.73.23c.67.2,1.3.4,1.92.61l3.57,1.2a67.22,67.22,0,0,0,6.53,1.95,21.55,21.55,0,0,0,4.52.6,21,21,0,0,0-1.14-2.15,56.23,56.23,0,0,0-3.81-5.51c-1.42-1.83-2.94-3.65-4.52-5.45-.78-.89-1.58-1.8-2.4-2.71l-1.24-1.37c-.44-.44-.82-.89-1.33-1.48a128,128,0,0,1-10.5-13.2,68.5,68.5,0,0,1-4.55-7.58,39.69,39.69,0,0,1-1.92-4.32,23.22,23.22,0,0,1-1.34-5.26,14.47,14.47,0,0,1,0-3.48,10.28,10.28,0,0,1,1.59-4.31c.13-.19.32-.44.5-.67l.14-.18.08-.1.19-.2.12-.13.22-.23c.16-.16.33-.3.49-.45a9.8,9.8,0,0,1,2.1-1.33,11.35,11.35,0,0,1,3.92-1,18.53,18.53,0,0,1,5.79.49,34.34,34.34,0,0,1,4.63,1.42,65.11,65.11,0,0,1,8,3.78c2.49,1.37,4.9,2.84,7.2,4.37,4.16,2.54,8.15,5.16,12.11,7.87s7.94,5.57,11.76,8.5c7.68,5.86,15,12.1,22.17,18.33,14.3,12.47,28.38,24.77,44,34.61a143.59,143.59,0,0,0,24.35,12.52q1.57.61,3.18,1.2l1.59.56,1.64.55c2.23.73,4.46,1.46,6.69,2.16q6.68,2.1,13.47,4a554.42,554.42,0,0,0,54.9,12.47,684.77,684.77,0,0,0,112.35,10,792.12,792.12,0,0,0,112.79-7c18.72-2.51,37.29-5.7,55.7-9.76q13.82-3,27.56-6.53c4.57-1.15,9.14-2.34,13.68-3.57s9-2.56,13.55-4c9-2.78,17.95-5.87,27-8.74l6.78-2.13c2.23-.7,4.46-1.45,6.69-2.22q6.68-2.31,13.36-4.74,13.35-4.82,26.6-9.89,6.63-2.53,13.22-5.14c4.39-1.73,8.71-3.56,13.05-5.44q11.34-4.93,22.49-10.32c5-2.43,21.7-10.55,25.28-12.13,8.91-4,18.66-7.23,29-7.64a79.43,79.43,0,0,1,72,119,78.25,78.25,0,0,1-20.29,22.78,97.1,97.1,0,0,1-11.79,8c-1.68,1-3.31,2-5,3q-6.39,3.81-12.87,7.47-25.89,14.68-53,27.1t-55.09,22.66q-14,5.13-28.17,9.72t-28.51,8.62q-28.7,8.1-57.93,14.13c-9.74,2-19.48,3.89-29.31,5.57-2.46.42-4.9.81-7.4,1.18l-7.35,1.09-14.71,2.16c-19.63,2.87-39.32,5.53-59.12,7.58-9.89,1-19.82,1.85-29.78,2.45q-7.47.43-15,.65c-5,.14-10,.16-15,.14-19.89-.06-39.77-.65-59.63-1.65s-39.68-2.44-59.48-4.33-39.56-4.18-59.26-7-39.31-6.14-58.85-9.9-39-8-58.35-12.69-38.57-9.93-57.63-15.82c-4.76-1.46-9.54-3-14.26-4.52l-14.1-4.66q-14.15-4.65-28.26-9.47c-9.41-3.23-18.79-6.5-28.18-10.08-2.35-.89-4.7-1.83-7.08-2.82-1.19-.51-2.37-1-3.63-1.61s-2.31-1.12-3.46-1.7a134.27,134.27,0,0,1-13.48-7.74,71,71,0,0,1-6.51-4.81,40.37,40.37,0,0,1-3.18-2.95,23.2,23.2,0,0,1-3.12-3.94,13.15,13.15,0,0,1-1.34-3,9.78,9.78,0,0,1-.34-4.56,9.09,9.09,0,0,1,.3-1.25,11.42,11.42,0,0,1,.45-1.15,10.33,10.33,0,0,1,1.17-1.9,10.68,10.68,0,0,1,3.05-2.67,15.86,15.86,0,0,1,5.59-1.91,30.1,30.1,0,0,1,4.64-.34,61.39,61.39,0,0,1,8.23.64c2.62.37,5.17.83,7.7,1.34s4.9,1.07,7.34,1.6l7.26,1.6,10.48,2.31-4.84-2.12-13.63-6-13.61-6c-4.54-2-9.06-4-13.64-6.19l-3.41-1.61c-1.16-.55-2.31-1.12-3.45-1.69-2.3-1.17-4.57-2.38-6.81-3.65a119.59,119.59,0,0,1-13.17-8.55,61.22,61.22,0,0,1-6.23-5.37,36.36,36.36,0,0,1-3-3.33,21.49,21.49,0,0,1-2.8-4.45,14.21,14.21,0,0,1-1-3.31,10.61,10.61,0,0,1,.23-4.52,10.76,10.76,0,0,1,.37-1.09,10,10,0,0,1,2.08-3.19,12.1,12.1,0,0,1,3.22-2.33,18.23,18.23,0,0,1,5.45-1.62,33.65,33.65,0,0,1,4.6-.32,59.25,59.25,0,0,1,8.31.62c2.68.38,5.26.87,7.81,1.45a151.39,151.39,0,0,1,14.94,4.25c1.22.42,2.42.84,3.64,1.29l1.82.66,1.73.66,6.93,2.6q6.93,2.58,13.9,5.08t13.93,4.9c1.23.45,2.46.85,3.7,1.27l-.44-.25c-4.22-2.51-8.47-5-12.72-7.36l-3.17-1.74-1.54-.81-1.65-.85q-3.35-1.71-6.68-3.46c-4.42-2.33-8.79-4.69-13.15-7s-8.72-4.7-13.06-7l-3.27-1.71-.41-.22-.28-.13-.86-.45-1.68-.82q-3.42-1.74-6.79-3.62c-4.45-2.51-8.87-5.21-13.15-8.19a90.73,90.73,0,0,1-12.38-10.17,43.23,43.23,0,0,1-2.9-3.21,28.78,28.78,0,0,1-2.74-3.93,18.63,18.63,0,0,1-1.22-2.55,13.7,13.7,0,0,1-.85-3.39A10.77,10.77,0,0,1,4867.15,1685.94Z" transform="translate(-4866.64 -1624.77)"/><path class="cls-1" d="M5871.38,2001.41a9,9,0,0,0-.44-1.13,11.8,11.8,0,0,0-.67-1.2,10.63,10.63,0,0,0-1.58-1.9,11.59,11.59,0,0,0-3.39-2.23,15.46,15.46,0,0,0-3-1,24.69,24.69,0,0,0-5-.54,48.94,48.94,0,0,0-8.54.75,104.12,104.12,0,0,0-15.35,3.94l-1.84.62-1.83.65-.36.13-.65.24-.95.38-1.79.72-6.89,2.89-27.38,11.59-6.83,2.87-3.39,1.4-1.65.68-1.65.62c-4.75,1.78-9.35,3.71-13.93,5.56s-8.92,3.56-13.32,5.09l.84-.5c2-1.18,4.18-2.41,6.31-3.61l6.47-3.59,13-7.16,26.08-14.26,3.28-1.78c1.12-.62,2.24-1.25,3.35-1.89q3.35-1.92,6.61-4a119.46,119.46,0,0,0,12.68-9.25,62.92,62.92,0,0,0,6-5.7,36.44,36.44,0,0,0,2.82-3.49,21.08,21.08,0,0,0,2.53-4.61,13.29,13.29,0,0,0,.83-3.34,10.3,10.3,0,0,0-.89-5.58,8.6,8.6,0,0,0-.66-1.19,9.82,9.82,0,0,0-1.55-1.85,11.59,11.59,0,0,0-3.33-2.17,17.91,17.91,0,0,0-5.53-1.34,32.12,32.12,0,0,0-4.6-.08,58.69,58.69,0,0,0-8.26,1.07c-2.64.52-5.2,1.15-7.72,1.87a145.92,145.92,0,0,0-14.67,5.05c-2.38,1-4.73,2-7.08,3l-.89.4-.44.2-.16.07-1.78.72-3.52,1.49c-4.61,2-9.13,4-13.65,6.09l-27,12.27q-6.77,3-13.53,6c-2.25,1-4.51,1.93-6.75,2.85s-4.5,1.83-6.63,2.58l-.77.27-.74.23c-.66.2-1.3.4-1.92.61l-3.57,1.2a67.22,67.22,0,0,1-6.53,1.95,21.46,21.46,0,0,1-4.52.6,23.17,23.17,0,0,1,1.14-2.15,56.63,56.63,0,0,1,3.81-5.5c1.43-1.84,3-3.66,4.52-5.46.78-.89,1.58-1.8,2.4-2.71l1.24-1.37c.42-.45.82-.89,1.34-1.48a129.23,129.23,0,0,0,10.49-13.2,68.5,68.5,0,0,0,4.55-7.58,38.5,38.5,0,0,0,1.92-4.31,22.91,22.91,0,0,0,1.34-5.27,13.51,13.51,0,0,0,0-3.48,10.33,10.33,0,0,0-1.59-4.31c-.13-.19-.32-.44-.5-.67l-.14-.18-.08-.09-.19-.21-.12-.12-.22-.24c-.16-.16-.32-.3-.49-.45a9.56,9.56,0,0,0-2.1-1.33,11.36,11.36,0,0,0-3.91-1,18.67,18.67,0,0,0-5.82.49,34.34,34.34,0,0,0-4.63,1.42,63.76,63.76,0,0,0-8,3.78c-2.49,1.37-4.9,2.84-7.2,4.37-4.16,2.54-8.15,5.17-12.11,7.87s-7.94,5.57-11.75,8.5c-7.69,5.86-15,12.1-22.18,18.33-14.3,12.48-28.38,24.77-44,34.61a143.59,143.59,0,0,1-24.35,12.52q-1.58.61-3.18,1.2l-1.59.56-1.65.55c-2.23.73-4.45,1.46-6.68,2.16q-6.69,2.1-13.48,4a553.78,553.78,0,0,1-54.9,12.47,687,687,0,0,1-112.35,10,793.69,793.69,0,0,1-112.79-7c-18.69-2.51-37.28-5.7-55.7-9.76q-13.82-3-27.55-6.53-6.87-1.74-13.69-3.59c-4.54-1.24-9-2.56-13.54-4-9-2.78-18-5.87-27-8.74l-6.78-2.13c-2.23-.7-4.45-1.46-6.68-2.23q-6.69-2.3-13.37-4.73-13.33-4.83-26.6-9.89-6.63-2.54-13.22-5.14c-4.39-1.73-8.71-3.56-13.05-5.44q-11.34-4.93-22.49-10.32c-5-2.43-21.7-10.55-25.27-12.14-8.91-4-18.66-7.22-29-7.63a79.42,79.42,0,0,0-72,119,78.23,78.23,0,0,0,20.29,22.78,100.16,100.16,0,0,0,11.78,8c1.68.95,3.31,2,5,3q6.39,3.81,12.86,7.47,25.89,14.68,53,27.1t55.08,22.66q14,5.13,28.17,9.72t28.52,8.62q28.68,8.09,57.92,14.12c9.74,2,19.49,3.9,29.32,5.58,2.45.41,4.9.81,7.39,1.18l7.36,1.08,14.7,2.17c19.63,2.87,39.33,5.53,59.12,7.55,9.9,1,19.83,1.86,29.78,2.45,5,.29,10,.52,15,.66s10,.16,15,.14c19.89-.06,39.77-.65,59.62-1.66s39.69-2.44,59.49-4.32,39.55-4.19,59.26-7,39.31-6.14,58.85-9.9,39-8,58.34-12.69,38.58-9.94,57.64-15.82c4.75-1.47,9.53-3,14.25-4.53l14.14-4.63q14.15-4.66,28.26-9.47c9.41-3.24,18.79-6.51,28.18-10.09,2.35-.89,4.7-1.82,7.08-2.82,1.19-.5,2.38-1,3.64-1.61s2.3-1.12,3.45-1.7a132.77,132.77,0,0,0,13.47-7.71,69.61,69.61,0,0,0,6.51-4.81,40.51,40.51,0,0,0,3.19-3,23,23,0,0,0,3.09-3.94,13.67,13.67,0,0,0,1.36-3,9.78,9.78,0,0,0,.34-4.56,9.09,9.09,0,0,0-.3-1.25c-.13-.39-.28-.77-.45-1.15a10.33,10.33,0,0,0-1.17-1.9,10.94,10.94,0,0,0-3-2.67,15.91,15.91,0,0,0-5.6-1.91,28.68,28.68,0,0,0-4.63-.33,59.53,59.53,0,0,0-8.23.63c-2.63.37-5.18.83-7.7,1.34s-4.9,1.07-7.35,1.6l-7.26,1.6-10.48,2.31,4.84-2.12,13.63-6,13.61-6c4.54-2,9.06-4.05,13.64-6.19l3.41-1.61c1.16-.55,2.31-1.11,3.45-1.69,2.3-1.17,4.57-2.38,6.82-3.65a120.85,120.85,0,0,0,13.16-8.54,64.1,64.1,0,0,0,6.26-5.38,36.36,36.36,0,0,0,3-3.33,21,21,0,0,0,2.77-4.49,13.11,13.11,0,0,0,1-3.3,10.5,10.5,0,0,0-.22-4.53c-.11-.36-.23-.73-.37-1.08a9.8,9.8,0,0,0-2.09-3.19,11.79,11.79,0,0,0-3.22-2.33,18.17,18.17,0,0,0-5.44-1.62,32.38,32.38,0,0,0-4.61-.33,60.93,60.93,0,0,0-8.31.63c-2.67.37-5.25.87-7.81,1.44a148.57,148.57,0,0,0-14.93,4.26c-1.22.42-2.43.84-3.64,1.28l-1.82.67-1.73.66-6.93,2.59q-6.94,2.58-13.9,5.09t-13.93,4.9c-1.23.44-2.47.85-3.71,1.26l.45-.25c4.22-2.5,8.46-5,12.72-7.36l3.17-1.73,1.54-.81,1.64-.85c2.24-1.14,4.47-2.3,6.69-3.46,4.41-2.33,8.79-4.69,13.15-7s8.71-4.69,13.05-7l3.27-1.71.42-.21.27-.14.86-.44,1.68-.79q3.42-1.74,6.79-3.62c4.48-2.51,8.88-5.21,13.15-8.19a90.82,90.82,0,0,0,12.39-10.17c1-1,2-2,2.9-3.21a29.05,29.05,0,0,0,2.74-3.93,18.57,18.57,0,0,0,1.21-2.55,13.74,13.74,0,0,0,.85-3.38A10.81,10.81,0,0,0,5871.38,2001.41Z" transform="translate(-4866.64 -1624.77)"/></svg>